<svg xmlns="http://www.w3.org/2000/svg" width="19.006" height="14.254" viewBox="0 0 19.006 14.254">
  <path id="envelope" d="M2.376,65.782a.6.6,0,0,0-.594.594v.82l6.4,5.256a2.076,2.076,0,0,0,2.639,0l6.4-5.256v-.82a.6.6,0,0,0-.594-.594ZM1.782,69.5v6.377a.6.6,0,0,0,.594.594H16.63a.6.6,0,0,0,.594-.594V69.5L11.953,73.83a3.861,3.861,0,0,1-4.9,0ZM0,66.376A2.378,2.378,0,0,1,2.376,64H16.63a2.378,2.378,0,0,1,2.376,2.376v9.5a2.378,2.378,0,0,1-2.376,2.376H2.376A2.378,2.378,0,0,1,0,75.879Z" transform="translate(0 -64)" fill="#9a9a9a"/>
</svg>
