<svg xmlns="http://www.w3.org/2000/svg" width="29.204" height="29.205" viewBox="0 0 29.204 29.205">
  <path id="square-plus" d="M13.038,52.339V48.167H8.866a1.565,1.565,0,0,1,0-3.129h4.172V40.866a1.565,1.565,0,1,1,3.129,0v4.172h4.172a1.565,1.565,0,0,1,0,3.129H16.167v4.172a1.565,1.565,0,1,1-3.129,0ZM0,36.172A4.172,4.172,0,0,1,4.172,32h20.86A4.174,4.174,0,0,1,29.2,36.172v20.86A4.176,4.176,0,0,1,25.032,61.2H4.172A4.174,4.174,0,0,1,0,57.032Zm3.129,0v20.86a1.044,1.044,0,0,0,1.043,1.043h20.86a1.046,1.046,0,0,0,1.043-1.043V36.172a1.044,1.044,0,0,0-1.043-1.043H4.172A1.043,1.043,0,0,0,3.129,36.172Z" transform="translate(0 -32)" fill="#fff"/>
</svg>
